<svg xmlns="http://www.w3.org/2000/svg" xmlns:xlink="http://www.w3.org/1999/xlink" width="500" zoomAndPan="magnify" viewBox="0 0 375 374.999991" height="500" preserveAspectRatio="xMidYMid meet" version="1.0"><path fill="#776391" d="M 143.964844 233.984375 L 145.613281 235.605469 L 145.777344 235.769531 C 150.902344 241.054688 150.847656 249.5625 145.613281 254.773438 C 140.375 259.984375 131.828125 260.039062 126.519531 254.9375 L 126.355469 254.773438 L 124.707031 253.152344 L 120.222656 248.667969 C 114.929688 243.40625 114.929688 234.785156 120.222656 229.503906 C 125.511719 224.238281 134.1875 224.238281 139.480469 229.503906 Z M 234.796875 159.832031 L 236.390625 158.25 L 238.222656 156.425781 L 255.007812 139.71875 C 260.300781 134.453125 260.300781 125.835938 255.007812 120.554688 C 249.699219 115.289062 241.042969 115.289062 235.75 120.554688 L 218.964844 137.261719 L 217.132812 139.082031 L 215.539062 140.667969 L 205.910156 150.25 C 200.621094 155.515625 200.621094 164.132812 205.910156 169.417969 L 215.539062 179 L 217.261719 180.695312 L 235.878906 199.222656 C 241.167969 204.488281 249.828125 204.488281 255.136719 199.222656 C 260.425781 193.957031 260.425781 185.324219 255.136719 180.058594 L 236.519531 161.527344 Z M 120.992188 120.679688 L 120.992188 120.664062 C 126.28125 115.398438 134.957031 115.398438 140.25 120.664062 L 254.878906 234.769531 C 260.1875 240.035156 260.1875 248.667969 254.878906 253.933594 C 249.589844 259.199219 240.929688 259.199219 235.621094 253.933594 L 120.992188 139.828125 C 115.699219 134.5625 115.699219 125.945312 120.992188 120.679688 Z M 120.824219 175.300781 C 126.117188 170.035156 134.773438 170.035156 140.082031 175.300781 L 153.136719 188.292969 L 181.382812 216.402344 L 200 234.933594 C 205.289062 240.199219 205.289062 248.832031 200 254.097656 C 194.691406 259.363281 186.03125 259.363281 180.742188 254.097656 L 162.125 235.570312 L 133.878906 207.457031 L 120.824219 194.46875 C 115.535156 189.203125 115.535156 180.566406 120.824219 175.300781 Z M 120.824219 175.300781 " fill-opacity="1" fill-rule="evenodd"/></svg>